<svg xmlns="http://www.w3.org/2000/svg" xmlns:xlink="http://www.w3.org/1999/xlink" viewBox="0 0 399.16 143.53"><defs><linearGradient id="linear-gradient" x1="31.21" y1="57.21" x2="372.79" y2="57.21" gradientUnits="userSpaceOnUse"><stop offset="0" stop-color="#d1037f"/><stop offset="0.04" stop-color="#c6037f"/><stop offset="0.28" stop-color="#90027e"/><stop offset="0.51" stop-color="#66027d"/><stop offset="0.71" stop-color="#47017c"/><stop offset="0.88" stop-color="#35017c"/><stop offset="1" stop-color="#2e017c"/></linearGradient><linearGradient id="linear-gradient-2" x1="31.21" y1="49.66" x2="372.79" y2="49.66" xlink:href="#linear-gradient"/></defs><g id="Layer_2" data-name="Layer 2"><g id="Layer_1-2" data-name="Layer 1"><path d="M374,31.16c-21,0-36.52,14.92-39.89,34a33.42,33.42,0,0,0,.07,12.34,1.6,1.6,0,0,1-1.54,2h-1.93c-1.77,0-2.6-1-2.29-2.79l7.43-42.13a1.59,1.59,0,0,0-1.57-1.87H315.6A1.6,1.6,0,0,0,314,34l-4.85,27.52c-1.72,9.74-7.59,18-16.95,18-4.55,0-6.51-2.53-5.44-8.6l5.11-29c1.13-6.45-1.16-9.23-7.61-9.23H255a1.6,1.6,0,0,1-1.57-1.87L255.83,17a1.6,1.6,0,0,0-1.57-1.87h-18a1.61,1.61,0,0,0-1.57,1.32l-2.63,14.94a1.61,1.61,0,0,1-1.57,1.32h-6.3A1.58,1.58,0,0,0,222.61,34l-2.45,13.89a1.6,1.6,0,0,0,1.57,1.87h4.54a1.58,1.58,0,0,1,1.57,1.87l-3.9,22.16c-3.86,21.87,15.76,24.66,26.13,24.66a47.22,47.22,0,0,0,4.8-.24,1.57,1.57,0,0,0,1.41-1.31l3.14-17.8s-1.16.12-2.93.12c-4.17,0-11.46-1-10.16-8.34l3.49-19.8a1.6,1.6,0,0,1,1.57-1.32h14.24c1.77,0,2.61,1,2.29,2.79L264.2,74.91C261,93.25,270.14,99.32,283,99.32c8.72,0,17.45-4.3,22.22-11.25h.25s-.28.88-.4,1.51l-.15.89c-.78,4.43,2,7.33,7.94,7.33h18a1.6,1.6,0,0,0,1.57-1.31l1.78-10.1a1.59,1.59,0,0,1,3-.48c4.54,7.93,13.34,13.41,26.62,13.41,14.45,0,25.42-7.21,28.66-9.61a1.57,1.57,0,0,0,.51-1.89L388.1,76.07a1.6,1.6,0,0,0-2.33-.72c-3,1.92-9.93,5.76-16.95,5.76-6.41,0-11.95-3.12-12.93-10a1.62,1.62,0,0,1,1.59-1.85h38.15a1.59,1.59,0,0,0,1.54-1.15c.4-1.46,1.08-4,1.33-5.42C401.69,44.56,393.18,31.16,374,31.16ZM375.81,56H361.43a1.61,1.61,0,0,1-1.31-2.52,12.41,12.41,0,0,1,10.94-5.83c3.95,0,6.28,3.23,6.36,6.73A1.6,1.6,0,0,1,375.81,56Z" fill="url(#linear-gradient)"/><path d="M218.38,79.47h-2.9c-1.77,0-2.61-1-2.29-2.79l3.72-21.11c3.23-18.34-5.94-24.41-19.09-24.41a27.94,27.94,0,0,0-22.6,11.25H175a14.4,14.4,0,0,0,.39-1.51l.16-.89c.78-4.42-1.87-7.33-7.81-7.33H149.57A1.6,1.6,0,0,0,148,34l-1.84,10.45a1.58,1.58,0,0,1-2.93.52c-5.11-8.65-15.15-13.8-27.73-13.8A44.81,44.81,0,0,0,85.9,42.29a43.35,43.35,0,0,0,2.54-8.41C92.23,14.05,80.88,0,60.13,0H11.75a4,4,0,0,0-4,3.1L5.23,16.25a3.86,3.86,0,0,0,4,4.41,3.86,3.86,0,0,1,4,4.41L.06,94.07a3.86,3.86,0,0,0,4,4.41H22.52a4,4,0,0,0,4-3.11l4.63-24.23a4,4,0,0,1,4-3.1h12A41.73,41.73,0,0,0,75.07,57.55l-.35.83a39.81,39.81,0,0,0-1.93,7.05C69.2,85.79,83.12,99.32,103.61,99.32s39.19-13.53,42.78-33.89a32.91,32.91,0,0,0-.08-12.54A1.59,1.59,0,0,1,147.88,51h1.92c1.78,0,2.61,1,2.3,2.79l-7.43,42.13a1.59,1.59,0,0,0,1.57,1.87h18.64a1.6,1.6,0,0,0,1.57-1.31L171.3,69a29.54,29.54,0,0,1,2.78-8.6C177,54.81,181.8,51,188.63,51c4.8,0,6.76,2.53,5.69,8.6l-5.11,29c-1.13,6.45,1.16,9.23,7.61,9.23h18.89a1.58,1.58,0,0,0,1.57-1.31L220,81.34A1.58,1.58,0,0,0,218.38,79.47Zm-147-45.54-5.08,1.4a40,40,0,0,1-4.68.9A1.67,1.67,0,0,0,60.5,39a38.15,38.15,0,0,1,2.63,3.32l2.71,3.84a1.64,1.64,0,0,1-.54,2.36l-8.42,5.06a2,2,0,0,1-2.56-.5l-2.71-3.84a28.3,28.3,0,0,1-2.15-3.6,1.92,1.92,0,0,0-3.22-.25A39.46,39.46,0,0,1,43.42,49L40,52.75a2,2,0,0,1-2.59.23l-7.93-6a1.62,1.62,0,0,1-.24-2.43l3.39-3.67a39.6,39.6,0,0,1,3.17-3.19A1.65,1.65,0,0,0,35,34.87c-1.53-.33-3-.73-4.3-1.12l-4.74-1.52A1.68,1.68,0,0,1,24.79,30l3.61-8.76a1.89,1.89,0,0,1,2.32-1l4.79,1.48a31.39,31.39,0,0,1,4.36,1.8,1.84,1.84,0,0,0,2.68-1.63,33.69,33.69,0,0,1,.06-4.3L43,12.94a1.79,1.79,0,0,1,1.94-1.58l10.11.5a1.75,1.75,0,0,1,1.74,1.84l-.41,4.63a35.19,35.19,0,0,1-.59,4.08,1.8,1.8,0,0,0,2.5,1.88,37.28,37.28,0,0,1,4.39-1.39l5.08-1.32A1.86,1.86,0,0,1,70,22.78l2.68,9.07A1.7,1.7,0,0,1,71.42,33.93Zm53,31.5c-1.72,9.74-9.59,15.68-17.56,15.68s-13.75-5.94-12-15.68,9.66-16.06,17.63-16.06S126.12,55.57,124.38,65.43Z" fill="url(#linear-gradient-2)"/><path d="M45.5,136.37H46c.42,0,.63-.08.9-.58L56.1,119.5h2L61,135.87c.08.42.24.5.66.5h.48L61.79,138H60.66c-1,0-1.29-.26-1.53-1.52l-.76-4.37H51l-2.47,4.37c-.68,1.26-1,1.52-2.16,1.52H45.18Zm12.68-5.87L57,123.89c-.13-.87-.24-2.39-.24-2.39h0S56,123,55.53,123.89l-3.69,6.61Z"/><path d="M66.35,127.34a3.42,3.42,0,0,0,.08-.6c0-.27-.11-.43-.48-.43h-1.1l.29-1.55H67c1,0,1.31.42,1.31,1a5.1,5.1,0,0,1-.31,1.47h0A5.67,5.67,0,0,1,73,124.45c3.08,0,4.85,2,4.85,5.44,0,4.87-3.53,8.43-7.22,8.43a4.13,4.13,0,0,1-4.1-2.66h0s-.06.61-.19,1.26L65,143.27H63.24Zm4.08,9.37c2.63,0,5.53-2.6,5.53-6.66,0-2.6-1.24-4-3.32-4-3.27,0-5.48,3.58-5.48,6.74C67.16,135,68.22,136.71,70.43,136.71Z"/><path d="M81.91,126.89c0-.31,0-.58-.48-.58h-1.1l.31-1.55h1.85c1,0,1.34.37,1.34,1.08a11.38,11.38,0,0,1-.53,2.42h0c.93-1.87,2.69-3.63,4.9-3.63a3.36,3.36,0,0,1,.74.08l-.34,1.76a5.76,5.76,0,0,0-.66,0c-2.85,0-4.87,3.47-5.45,6.53l-1,5.05H79.78Z"/><path d="M96.52,124.45c3.26,0,4.76,2,4.76,4.79a8.44,8.44,0,0,1-.39,2.21H90.75a5.69,5.69,0,0,0-.13,1.16,3.89,3.89,0,0,0,4.24,4.1,7.55,7.55,0,0,0,4.32-1.6l.58,1.47a8.93,8.93,0,0,1-5,1.74c-3.6,0-6-2.24-6-5.58C88.78,128.42,92,124.45,96.52,124.45ZM99.36,130a6,6,0,0,0,.08-.92,2.81,2.81,0,0,0-3-3.16A5.77,5.77,0,0,0,91.12,130Z"/><path d="M105.05,127.34a3.1,3.1,0,0,0,.08-.6c0-.27-.16-.43-.5-.43h-1l.28-1.55h1.79c.95,0,1.37.42,1.37,1.11a9.78,9.78,0,0,1-.37,2h.06a7,7,0,0,1,5.82-3.39c2.6,0,3.73,1.36,3.73,3.55a10.25,10.25,0,0,1-.18,1.63l-1.16,6a2.81,2.81,0,0,0,0,.44c0,.27.16.4.47.4h1.11l-.29,1.55h-1.85c-.94,0-1.36-.37-1.36-1.16a4.83,4.83,0,0,1,0-.6l1.21-6.21a8.59,8.59,0,0,0,.18-1.56,2.06,2.06,0,0,0-2.36-2.34c-3,0-5.51,2.92-6,5.58L104.79,138H103Z"/><path d="M126.08,124.45a4,4,0,0,1,4.11,2.68h.05a10.1,10.1,0,0,1,.13-1.1l.77-4a2.59,2.59,0,0,0,.08-.58q0-.39-.48-.39h-1.1l.31-1.55h1.82c.95,0,1.42.34,1.42,1.08a5,5,0,0,1-.1.79l-2.77,14.11a2.85,2.85,0,0,0-.08.57c0,.22.11.4.45.4h1.11l-.29,1.55h-1.69c-1,0-1.39-.39-1.39-1.05a4.79,4.79,0,0,1,.31-1.45h-.05a5.84,5.84,0,0,1-4.9,2.82c-3.15,0-4.92-2-4.92-5.32C118.87,128,122.37,124.45,126.08,124.45Zm-2,12.26c3.31,0,5.45-3.68,5.45-6.87,0-2-1-3.76-3.29-3.76-2.61,0-5.51,2.58-5.51,6.79C120.71,135.26,122,136.71,124.06,136.71Z"/><path d="M134.83,136.13l1.73-8.84a2.34,2.34,0,0,0,.08-.58c0-.26-.16-.4-.47-.4h-1.11l.32-1.55h1.79c1,0,1.39.34,1.39,1.11a5.24,5.24,0,0,1-.1.81l-1.74,8.93c0,.13-.08.37-.08.44,0,.27.19.4.5.4h1.11L138,138h-1.84c-.93,0-1.37-.37-1.37-1.16A4.37,4.37,0,0,1,134.83,136.13ZM138,119.5h1.74l-.45,2.26h-1.74Z"/><path d="M140,136.63l9.06-9c.66-.66,1.37-1.29,1.37-1.29v0s-.53,0-1.29,0H144.3a.67.67,0,0,0-.71.58l-.18,1h-1.66l.32-1.58a1.71,1.71,0,0,1,1.92-1.61h9.18l-.29,1.37-9.08,9c-.65.66-1.39,1.26-1.39,1.26v.06a12.76,12.76,0,0,1,1.37-.06h5.45a.66.66,0,0,0,.68-.58l.18-1h1.66l-.31,1.58a1.71,1.71,0,0,1-1.93,1.6h-9.76Z"/><path d="M162.55,129.84h.84l.05-.34a7,7,0,0,0,.13-1.26c0-1.56-.89-2.29-2.71-2.29-.89,0-2.76.21-3,1.15l-.13.85h-1.73l.23-1.27c.35-1.71,3-2.23,4.82-2.23,3,0,4.26,1.5,4.26,3.66a9.08,9.08,0,0,1-.15,1.6l-1.14,5.74c0,.18-.1.47-.1.6s.13.4.47.4h1.11l-.29,1.55h-1.69c-1,0-1.42-.39-1.42-1.05a6.68,6.68,0,0,1,.32-1.63h-.05a6,6,0,0,1-5,3c-2,0-3.84-1-3.84-3.45C153.6,130.87,158.49,129.84,162.55,129.84Zm-4.71,7c2.73,0,4.79-3.1,5.16-5l.1-.61h-.74c-2.23,0-6.92.32-6.92,3.35A2.15,2.15,0,0,0,157.84,136.84Z"/><path d="M171.42,141.9a5.15,5.15,0,0,0,5.56-4.71,10.66,10.66,0,0,1,.42-1.71h0a5.13,5.13,0,0,1-4.42,2.44c-3.14,0-5-2.08-5-5.26,0-3.71,2.45-8.21,7-8.21,2.13,0,3.84.86,4.24,2.42h0a2.33,2.33,0,0,1,0-.61,1.61,1.61,0,0,1,1.81-1.5h1.87l-.29,1.58h-1.1a.67.67,0,0,0-.71.55l-2.11,10.93a6.87,6.87,0,0,1-7.13,5.71,9.18,9.18,0,0,1-4.45-1.08L168,141A7.41,7.41,0,0,0,171.42,141.9Zm1.84-5.58c3.48,0,5.14-4,5.14-7,0-2.42-1.48-3.24-3.4-3.24-3.34,0-5.24,3.34-5.24,6.5C169.76,134.9,171,136.32,173.26,136.32Z"/><path d="M190.8,124.45c3.26,0,4.76,2,4.76,4.79a8.44,8.44,0,0,1-.39,2.21H185a5.69,5.69,0,0,0-.13,1.16,3.89,3.89,0,0,0,4.24,4.1,7.59,7.59,0,0,0,4.32-1.6l.57,1.47a8.88,8.88,0,0,1-5,1.74c-3.6,0-6-2.24-6-5.58C183.06,128.42,186.32,124.45,190.8,124.45Zm2.84,5.58a6,6,0,0,0,.08-.92,2.81,2.81,0,0,0-3-3.16A5.77,5.77,0,0,0,185.4,130Z"/><path d="M199.33,127.34a3.1,3.1,0,0,0,.08-.6c0-.27-.16-.43-.5-.43h-1.06l.29-1.55h1.79c.95,0,1.37.42,1.37,1.13a8.88,8.88,0,0,1-.34,1.9h0a6.82,6.82,0,0,1,5.5-3.34c2.35,0,3.37,1.26,3.43,3.34H210a6.91,6.91,0,0,1,5.58-3.34c2.45,0,3.47,1.34,3.47,3.47a9.52,9.52,0,0,1-.18,1.66l-1.16,6c0,.13-.08.37-.08.44,0,.27.16.4.48.4h1.1l-.29,1.55h-1.84c-.95,0-1.37-.37-1.37-1.16a2.92,2.92,0,0,1,.08-.6L217,130a8.78,8.78,0,0,0,.19-1.61c0-1.32-.5-2.29-2.11-2.29-2.76,0-5.19,3-5.71,5.63L208.15,138h-1.79l1.55-8a7.28,7.28,0,0,0,.18-1.61c0-1.32-.5-2.29-2.08-2.29-2.89,0-5.23,3-5.73,5.66L199.06,138h-1.79Z"/><path d="M228.29,136.37H230l3-15.24h-1.73l.31-1.63h5.29l-.31,1.63h-1.77l-3,15.24h1.76l-.34,1.63H228Z"/><path d="M238.56,127.34a3.1,3.1,0,0,0,.08-.6c0-.27-.16-.43-.5-.43h-1.06l.29-1.55h1.79c1,0,1.37.42,1.37,1.11a9.78,9.78,0,0,1-.37,2h.05a7.07,7.07,0,0,1,5.82-3.39c2.61,0,3.74,1.36,3.74,3.55a10.25,10.25,0,0,1-.18,1.63l-1.16,6a3,3,0,0,0-.06.44c0,.27.16.4.48.4H250l-.29,1.55h-1.84c-.95,0-1.37-.37-1.37-1.16a5,5,0,0,1,.06-.6l1.21-6.21a8.59,8.59,0,0,0,.18-1.56,2.07,2.07,0,0,0-2.37-2.34c-3,0-5.5,2.92-6,5.58L238.29,138H236.5Z"/><path d="M253.25,133.13l1.34-6.87h-1.74l.29-1.5h1.77l.71-3.66h1.76l-.71,3.66H260l-.29,1.5h-3.32L255.09,133a5.81,5.81,0,0,0-.13,1.24,2.08,2.08,0,0,0,2.39,2.31,3.46,3.46,0,0,0,.64-.05l-.32,1.61a5.45,5.45,0,0,1-.76.05c-1.35,0-3.82-.55-3.82-3.58A6.75,6.75,0,0,1,253.25,133.13Z"/><path d="M268.12,124.45c3.27,0,4.77,2,4.77,4.79a8.26,8.26,0,0,1-.4,2.21H262.36a5.69,5.69,0,0,0-.13,1.16,3.88,3.88,0,0,0,4.23,4.1,7.55,7.55,0,0,0,4.32-1.6l.58,1.47a8.88,8.88,0,0,1-5,1.74c-3.61,0-6-2.24-6-5.58C260.38,128.42,263.65,124.45,268.12,124.45ZM271,130a6.81,6.81,0,0,0,.07-.92,2.81,2.81,0,0,0-3-3.16,5.76,5.76,0,0,0-5.31,4.08Z"/><path d="M274.92,136.24,277.65,122a2.28,2.28,0,0,0,.08-.58c0-.26-.16-.39-.47-.39h-1.11l.32-1.55h1.82c.94,0,1.39.34,1.39,1.1a5.09,5.09,0,0,1-.1.77l-2.77,14.24a3.51,3.51,0,0,0-.08.44c0,.27.19.4.5.4h1.11l-.29,1.55h-1.84c-.93,0-1.37-.37-1.37-1.16A2.36,2.36,0,0,1,274.92,136.24Z"/><path d="M281.39,136.13l1.74-8.84a2.93,2.93,0,0,0,.08-.58c0-.26-.16-.4-.47-.4h-1.11l.32-1.55h1.79c.94,0,1.39.34,1.39,1.11a4.33,4.33,0,0,1-.11.81l-1.73,8.93a3.51,3.51,0,0,0-.08.44c0,.27.18.4.5.4h1.1l-.29,1.55h-1.84c-.92,0-1.37-.37-1.37-1.16A6,6,0,0,1,281.39,136.13Zm3.19-16.63h1.73l-.44,2.26h-1.74Z"/><path d="M290.82,141.9a5.15,5.15,0,0,0,5.55-4.71,10.66,10.66,0,0,1,.42-1.71h0a5.13,5.13,0,0,1-4.43,2.44c-3.13,0-5-2.08-5-5.26,0-3.71,2.44-8.21,6.95-8.21,2.13,0,3.84.86,4.23,2.42h.06a2.52,2.52,0,0,1,0-.61,1.62,1.62,0,0,1,1.82-1.5h1.87l-.29,1.58h-1.11a.67.67,0,0,0-.71.55l-2.1,10.93a6.88,6.88,0,0,1-7.14,5.71,9.21,9.21,0,0,1-4.45-1.08l.87-1.45A7.43,7.43,0,0,0,290.82,141.9Zm1.84-5.58c3.47,0,5.13-4,5.13-7,0-2.42-1.47-3.24-3.39-3.24-3.35,0-5.24,3.34-5.24,6.5C289.16,134.9,290.42,136.32,292.66,136.32Z"/><path d="M310.19,124.45c3.27,0,4.77,2,4.77,4.79a8.26,8.26,0,0,1-.4,2.21H304.43a5.69,5.69,0,0,0-.13,1.16,3.89,3.89,0,0,0,4.24,4.1,7.54,7.54,0,0,0,4.31-1.6l.58,1.47a8.88,8.88,0,0,1-5,1.74c-3.61,0-6-2.24-6-5.58C302.45,128.42,305.72,124.45,310.19,124.45ZM313,130a6,6,0,0,0,.08-.92,2.82,2.82,0,0,0-3-3.16A5.77,5.77,0,0,0,304.8,130Z"/><path d="M318.72,127.34a2.48,2.48,0,0,0,.08-.6c0-.27-.15-.43-.5-.43h-1.05l.29-1.55h1.79c.95,0,1.37.42,1.37,1.11a9.78,9.78,0,0,1-.37,2h.05a7.07,7.07,0,0,1,5.82-3.39c2.61,0,3.74,1.36,3.74,3.55a9.29,9.29,0,0,1-.19,1.63l-1.15,6a3,3,0,0,0-.06.44c0,.27.16.4.48.4h1.1l-.29,1.55H328c-.95,0-1.37-.37-1.37-1.16,0-.15,0-.39.05-.6l1.22-6.21a8.59,8.59,0,0,0,.18-1.56,2.07,2.07,0,0,0-2.37-2.34c-3,0-5.5,2.92-6,5.58L318.46,138h-1.79Z"/><path d="M333.42,133.13l1.34-6.87H333l.29-1.5h1.76l.72-3.66h1.76l-.71,3.66h3.31l-.29,1.5h-3.31L335.26,133a5.23,5.23,0,0,0-.13,1.24,2.08,2.08,0,0,0,2.39,2.31,3.27,3.27,0,0,0,.63-.05l-.31,1.61a5.52,5.52,0,0,1-.77.05c-1.34,0-3.81-.55-3.81-3.58A6.75,6.75,0,0,1,333.42,133.13Z"/><path d="M348.29,124.45c3.26,0,4.76,2,4.76,4.79a8.44,8.44,0,0,1-.39,2.21H342.52a5.69,5.69,0,0,0-.13,1.16,3.89,3.89,0,0,0,4.24,4.1,7.55,7.55,0,0,0,4.32-1.6l.58,1.47a8.91,8.91,0,0,1-5,1.74c-3.61,0-6-2.24-6-5.58C340.55,128.42,343.81,124.45,348.29,124.45Zm2.84,5.58a6,6,0,0,0,.08-.92,2.81,2.81,0,0,0-3-3.16,5.78,5.78,0,0,0-5.32,4.08Z"/></g></g></svg>